<svg width="239" height="63" viewBox="0 0 239 63" fill="none" xmlns="http://www.w3.org/2000/svg">
<path d="M60.5306 31.375C60.5306 47.6667 47.3168 60.875 31.0153 60.875C14.7138 60.875 1.5 47.6667 1.5 31.375C1.5 15.0833 14.7138 1.875 31.0153 1.875C47.3168 1.875 60.5306 15.0833 60.5306 31.375Z" stroke="#EF2A82" stroke-width="3"/>
<path d="M48.788 17.156C49.46 17.252 49.916 17.456 50.156 17.768C50.42 18.08 50.552 18.488 50.552 18.992C50.552 20.648 49.664 21.416 47.888 21.296L46.628 21.188C45.212 21.068 43.796 20.972 42.38 20.9C40.988 20.828 39.524 20.792 37.988 20.792H36.368C36.08 24.344 35.78 27.584 35.468 30.512L41.66 30.404C42.548 30.404 43.136 30.56 43.424 30.872C43.736 31.184 43.892 31.604 43.892 32.132C43.892 32.948 43.652 33.596 43.172 34.076C42.692 34.532 42.008 34.76 41.12 34.76H34.964L34.748 36.308C34.244 40.268 33.164 43.088 31.508 44.768C29.876 46.448 27.62 47.288 24.74 47.288C23.108 47.288 21.608 46.94 20.24 46.244C18.872 45.524 17.864 44.66 17.216 43.652C16.952 43.244 16.82 42.752 16.82 42.176C16.82 41.6 16.952 41.096 17.216 40.664C17.504 40.232 17.852 40.016 18.26 40.016C18.548 40.016 18.824 40.112 19.088 40.304C19.376 40.496 19.736 40.868 20.168 41.42C21.32 42.932 22.748 43.688 24.452 43.688C25.82 43.688 26.96 43.136 27.872 42.032C28.808 40.904 29.408 39.14 29.672 36.74L29.888 34.76H28.16C27.608 34.76 27.128 34.604 26.72 34.292C26.336 33.98 26.144 33.536 26.144 32.96C26.144 32.216 26.336 31.652 26.72 31.268C27.104 30.86 27.668 30.656 28.412 30.656C29.084 30.656 29.744 30.644 30.392 30.62C30.68 27.98 30.992 24.776 31.328 21.008C28.736 21.248 26.912 21.668 25.856 22.268C24.8 22.868 24.272 23.756 24.272 24.932C24.272 25.748 24.512 26.528 24.992 27.272C25.136 27.488 25.208 27.704 25.208 27.92C25.208 28.352 24.968 28.736 24.488 29.072C24.008 29.384 23.468 29.54 22.868 29.54C22.22 29.54 21.668 29.348 21.212 28.964C20.924 28.724 20.648 28.232 20.384 27.488C20.12 26.744 19.988 25.916 19.988 25.004C19.988 22.028 21.512 19.868 24.56 18.524C27.632 17.18 32.108 16.508 37.988 16.508C42.068 16.508 45.668 16.724 48.788 17.156Z" fill="#EF2A82"/>
<path d="M106.613 32.916H96.4883V43.375H91.2148V17.7812H107.879V22.0527H96.4883V28.6621H106.613V32.916ZM120.412 34.0059H116.211V43.375H110.938V17.7812H120.447C123.471 17.7812 125.803 18.4551 127.443 19.8027C129.084 21.1504 129.904 23.0547 129.904 25.5156C129.904 27.2617 129.523 28.7207 128.762 29.8926C128.012 31.0527 126.869 31.9785 125.334 32.6699L130.871 43.1289V43.375H125.211L120.412 34.0059ZM116.211 29.7344H120.465C121.789 29.7344 122.814 29.4004 123.541 28.7324C124.268 28.0527 124.631 27.1211 124.631 25.9375C124.631 24.7305 124.285 23.7812 123.594 23.0898C122.914 22.3984 121.865 22.0527 120.447 22.0527H116.211V29.7344ZM148.379 38.1016H139.133L137.375 43.375H131.768L141.295 17.7812H146.182L155.762 43.375H150.154L148.379 38.1016ZM140.557 33.8301H146.955L143.738 24.25L140.557 33.8301ZM165.043 17.7812L171.617 36.3438L178.156 17.7812H185.082V43.375H179.791V36.3789L180.318 24.3027L173.41 43.375H169.789L162.898 24.3203L163.426 36.3789V43.375H158.152V17.7812H165.043ZM205.086 32.2832H194.961V39.1387H206.844V43.375H189.688V17.7812H206.809V22.0527H194.961V28.1523H205.086V32.2832ZM219.412 34.0059H215.211V43.375H209.938V17.7812H219.447C222.471 17.7812 224.803 18.4551 226.443 19.8027C228.084 21.1504 228.904 23.0547 228.904 25.5156C228.904 27.2617 228.523 28.7207 227.762 29.8926C227.012 31.0527 225.869 31.9785 224.334 32.6699L229.871 43.1289V43.375H224.211L219.412 34.0059ZM215.211 29.7344H219.465C220.789 29.7344 221.814 29.4004 222.541 28.7324C223.268 28.0527 223.631 27.1211 223.631 25.9375C223.631 24.7305 223.285 23.7812 222.594 23.0898C221.914 22.3984 220.865 22.0527 219.447 22.0527H215.211V29.7344Z" fill="white"/>
</svg>
