<svg width="222" height="63" viewBox="0 0 222 63" fill="none" xmlns="http://www.w3.org/2000/svg">
<path d="M60.5306 31.375C60.5306 47.6667 47.3168 60.875 31.0153 60.875C14.7138 60.875 1.5 47.6667 1.5 31.375C1.5 15.0833 14.7138 1.875 31.0153 1.875C47.3168 1.875 60.5306 15.0833 60.5306 31.375Z" stroke="#EF2A82" stroke-width="3"/>
<path d="M46.932 17.156C47.604 17.252 48.06 17.456 48.3 17.768C48.564 18.08 48.696 18.488 48.696 18.992C48.696 20.648 47.808 21.416 46.032 21.296L44.772 21.188C43.356 21.068 41.94 20.972 40.524 20.9C39.132 20.828 37.668 20.792 36.132 20.792H34.512C34.224 24.344 33.924 27.584 33.612 30.512L39.804 30.404C40.692 30.404 41.28 30.56 41.568 30.872C41.88 31.184 42.036 31.604 42.036 32.132C42.036 32.948 41.796 33.596 41.316 34.076C40.836 34.532 40.152 34.76 39.264 34.76H33.108L32.892 36.308C32.388 40.268 31.308 43.088 29.652 44.768C28.02 46.448 25.764 47.288 22.884 47.288C21.252 47.288 19.752 46.94 18.384 46.244C17.016 45.524 16.008 44.66 15.36 43.652C15.096 43.244 14.964 42.752 14.964 42.176C14.964 41.6 15.096 41.096 15.36 40.664C15.648 40.232 15.996 40.016 16.404 40.016C16.692 40.016 16.968 40.112 17.232 40.304C17.52 40.496 17.88 40.868 18.312 41.42C19.464 42.932 20.892 43.688 22.596 43.688C23.964 43.688 25.104 43.136 26.016 42.032C26.952 40.904 27.552 39.14 27.816 36.74L28.032 34.76H26.304C25.752 34.76 25.272 34.604 24.864 34.292C24.48 33.98 24.288 33.536 24.288 32.96C24.288 32.216 24.48 31.652 24.864 31.268C25.248 30.86 25.812 30.656 26.556 30.656C27.228 30.656 27.888 30.644 28.536 30.62C28.824 27.98 29.136 24.776 29.472 21.008C26.88 21.248 25.056 21.668 24 22.268C22.944 22.868 22.416 23.756 22.416 24.932C22.416 25.748 22.656 26.528 23.136 27.272C23.28 27.488 23.352 27.704 23.352 27.92C23.352 28.352 23.112 28.736 22.632 29.072C22.152 29.384 21.612 29.54 21.012 29.54C20.364 29.54 19.812 29.348 19.356 28.964C19.068 28.724 18.792 28.232 18.528 27.488C18.264 26.744 18.132 25.916 18.132 25.004C18.132 22.028 19.656 19.868 22.704 18.524C25.776 17.18 30.252 16.508 36.132 16.508C40.212 16.508 43.812 16.724 46.932 17.156Z" fill="#EF2A82"/>
<path d="M97.6133 32.541H87.4883V43H82.2148V17.4062H98.8789V21.6777H87.4883V28.2871H97.6133V32.541ZM111.412 33.6309H107.211V43H101.938V17.4062H111.447C114.471 17.4062 116.803 18.0801 118.443 19.4277C120.084 20.7754 120.904 22.6797 120.904 25.1406C120.904 26.8867 120.523 28.3457 119.762 29.5176C119.012 30.6777 117.869 31.6035 116.334 32.2949L121.871 42.7539V43H116.211L111.412 33.6309ZM107.211 29.3594H111.465C112.789 29.3594 113.814 29.0254 114.541 28.3574C115.268 27.6777 115.631 26.7461 115.631 25.5625C115.631 24.3555 115.285 23.4062 114.594 22.7148C113.914 22.0234 112.865 21.6777 111.447 21.6777H107.211V29.3594ZM139.379 37.7266H130.133L128.375 43H122.768L132.295 17.4062H137.182L146.762 43H141.154L139.379 37.7266ZM131.557 33.4551H137.955L134.738 23.875L131.557 33.4551ZM156.043 17.4062L162.617 35.9688L169.156 17.4062H176.082V43H170.791V36.0039L171.318 23.9277L164.41 43H160.789L153.898 23.9453L154.426 36.0039V43H149.152V17.4062H156.043ZM196.086 31.9082H185.961V38.7637H197.844V43H180.688V17.4062H197.809V21.6777H185.961V27.7773H196.086V31.9082ZM210.412 33.6309H206.211V43H200.938V17.4062H210.447C213.471 17.4062 215.803 18.0801 217.443 19.4277C219.084 20.7754 219.904 22.6797 219.904 25.1406C219.904 26.8867 219.523 28.3457 218.762 29.5176C218.012 30.6777 216.869 31.6035 215.334 32.2949L220.871 42.7539V43H215.211L210.412 33.6309ZM206.211 29.3594H210.465C211.789 29.3594 212.814 29.0254 213.541 28.3574C214.268 27.6777 214.631 26.7461 214.631 25.5625C214.631 24.3555 214.285 23.4062 213.594 22.7148C212.914 22.0234 211.865 21.6777 210.447 21.6777H206.211V29.3594Z" fill="#16161D"/>
</svg>
